<svg xmlns="http://www.w3.org/2000/svg" width="16.5" height="16.562" viewBox="0 0 16.5 16.562">
  <g id="Group_3505" data-name="Group 3505" transform="translate(1421.857 -926.137)">
    <path id="Path_6489" data-name="Path 6489" d="M-1371.993,963.949a8.023,8.023,0,0,0-8.006,8.02,8.024,8.024,0,0,0,8.005,8.042A8.024,8.024,0,0,0-1364,971.98,8.023,8.023,0,0,0-1371.993,963.949Zm.678,15.208a7.194,7.194,0,0,1-7.838-6.52,7.223,7.223,0,0,1,6.508-7.841,7.21,7.21,0,0,1,7.827,6.992A7.2,7.2,0,0,1-1371.315,979.157Z" transform="translate(-41.608 -37.562)" fill="#010101" stroke="#090909" stroke-width="0.5"/>
    <path id="Path_6491" data-name="Path 6491" d="M-1298.054,1056.662q-1.133,1.433-2.277,2.856-.89,1.117-1.781,2.233a.988.988,0,0,1-1.3.331,1.167,1.167,0,0,1-.3-.25q-1.353-1.485-2.707-2.968a1.123,1.123,0,0,1-.321-.785,1.046,1.046,0,0,1,.615-.974.919.919,0,0,1,1.1.233c.544.578,1.073,1.172,1.611,1.757.3.327.527.321.8-.024q1.472-1.841,2.942-3.686a.993.993,0,0,1,1.451-.276A1.088,1.088,0,0,1-1298.054,1056.662Z" transform="translate(-111.175 -123.978)" fill="#ffce00"/>
  </g>
</svg>
