<svg xmlns="http://www.w3.org/2000/svg" width="16.689" height="16.051" viewBox="0 0 16.689 16.051">
  <g id="Group_3508" data-name="Group 3508" transform="translate(2291.903 -669.827)">
    <path id="Path_6513" data-name="Path 6513" d="M-1963.792,672.535a.808.808,0,0,0,0,.359v.1a5.19,5.19,0,0,1-.224.807,3.025,3.025,0,0,1-.5.787,1.7,1.7,0,0,0-.132-.171q-1.89-1.878-3.786-3.751c-.114-.112-.087-.154.019-.236a2.866,2.866,0,0,1,4.584,1.815c.006.033-.016.079.035.1Z" transform="translate(-311.421)"/>
    <path id="Path_6514" data-name="Path 6514" d="M-1842.286,743.325a.424.424,0,0,1,0-.359Z" transform="translate(-432.928 -70.431)" fill="#161616"/>
    <path id="Path_6515" data-name="Path 6515" d="M-2249.438,702.484a6.757,6.757,0,0,0-.075-1.057c-.024-.177-.058-.353-.1-.528a7.317,7.317,0,0,0-8.961-5.5,7.279,7.279,0,0,0-5.437,6.239,7.149,7.149,0,0,0,1.9,5.814c.155.172.157.17.011.357q-.453.578-.9,1.155a.782.782,0,0,0-.15.778.749.749,0,0,0,.613.521.775.775,0,0,0,.772-.317c.315-.4.631-.8.94-1.209.071-.093.119-.114.229-.046a7.184,7.184,0,0,0,4.588,1.063,7.113,7.113,0,0,0,2.914-.945c.326-.189.323-.192.551.1.3.38.584.771.9,1.132a.757.757,0,0,0,1.105,0,.778.778,0,0,0,.042-1.064c-.306-.4-.615-.8-.934-1.193-.1-.125-.1-.193.014-.312A7.213,7.213,0,0,0-2249.438,702.484Zm-7.306,5.9a5.918,5.918,0,0,1-5.907-5.9,5.92,5.92,0,0,1,5.891-5.9,5.92,5.92,0,0,1,5.915,5.9A5.917,5.917,0,0,1-2256.744,708.389Z" transform="translate(-26.812 -24.406)"/>
    <path id="Path_6516" data-name="Path 6516" d="M-2287.225,670.645c-1.325,1.309-2.646,2.623-3.978,3.944a2.861,2.861,0,0,1,.388-4.118,2.865,2.865,0,0,1,3.569.019C-2287.185,670.539-2287.146,670.567-2287.225,670.645Z" transform="translate(0 -0.029)"/>
    <path id="Path_6517" data-name="Path 6517" d="M-2192.709,801.539a1.1,1.1,0,0,1-.847.868,1.072,1.072,0,0,1-1.128-.439.268.268,0,0,0-.264-.131c-1.037,0-2.075,0-3.113-.006h-.081c-.333-.005-.546-.192-.541-.475a.476.476,0,0,1,.538-.46c.527,0,1.054,0,1.581,0v.005c.543,0,1.086,0,1.629,0a.166.166,0,0,0,.176-.1.929.929,0,0,1,.4-.414.183.183,0,0,0,.109-.191q-.005-.937,0-1.874a.472.472,0,0,1,.623-.48.486.486,0,0,1,.318.5c0,.614,0,1.228,0,1.842a.231.231,0,0,0,.123.232A1.077,1.077,0,0,1-2192.709,801.539Z" transform="translate(-89.768 -123.248)" fill="#ffce00"/>
  </g>
</svg>
