<svg xmlns="http://www.w3.org/2000/svg" width="10.666" height="16.062" viewBox="0 0 10.666 16.062">
  <g id="Group_3507" data-name="Group 3507" transform="translate(998.466 -60.68)">
    <path id="Path_6511" data-name="Path 6511" d="M-994.984,76.742a.558.558,0,0,1-.331-.418.957.957,0,0,1,.056-.352q.752-3.041,1.513-6.079c.031-.123,0-.138-.11-.138-1.359,0-2.717,0-4.076.005a.483.483,0,0,1-.53-.529,1.027,1.027,0,0,1,.066-.223q1.533-3.965,3.069-7.93a.5.5,0,0,1,.576-.391c1.39,0,2.78.01,4.17-.007a.5.5,0,0,1,.468.73c-.591,1.318-1.167,2.643-1.749,3.965-.027.06-.051.122-.082.2h.639c.993,0,1.986.006,2.979,0a.486.486,0,0,1,.523.538.644.644,0,0,1-.119.269l-5.22,8.13c-.4.627-.809,1.252-1.207,1.882a.964.964,0,0,1-.352.357Z" transform="translate(0)" fill="#010101"/>
    <path id="Path_6512" data-name="Path 6512" d="M-966.625,95.127q.167-.671.333-1.342.339-1.369.677-2.738a.477.477,0,0,0-.506-.635h-4.111c-.02-.069.023-.121.044-.174q1.327-3.436,2.655-6.872a.179.179,0,0,1,.2-.139c1,.005,2,0,2.994,0h.135c-.259.589-.51,1.163-.763,1.737q-.533,1.212-1.067,2.423a.48.48,0,0,0,.472.73h3.467l-4.506,7.016Z" transform="translate(-27.046 -21.602)" fill="#ffe645"/>
  </g>
</svg>
