<svg xmlns="http://www.w3.org/2000/svg" width="16" height="12.421" viewBox="0 0 16 12.421">
  <g id="Group_3506" data-name="Group 3506" transform="translate(1364.883 -239.808)">
    <path id="Path_6492" data-name="Path 6492" d="M-1349.842,247.435c-.363.1-.727.205-1.094.292a.293.293,0,0,0-.23.214,1.067,1.067,0,0,0,.941,1.433c.282.023.378.123.379.4,0,.407,0,.813,0,1.219a1.212,1.212,0,0,1-1.162,1.231c-.179.011-.36.005-.539.005h-5.817q-3.108,0-6.216,0a1.212,1.212,0,0,1-1.27-.96.846.846,0,0,1-.025-.2q0-.669,0-1.339a.312.312,0,0,1,.333-.356,1.153,1.153,0,0,0,.721-.3.28.28,0,0,0,.091-.348c-.093-.236-.116-.458.174-.583.063-.027.035-.074.024-.119a1.069,1.069,0,0,0-.917-.773c-.346-.024-.427-.11-.427-.454s0-.666,0-1a1.455,1.455,0,0,1,.119-.719c.044-.085,0-.168-.021-.25a1.54,1.54,0,0,1-.078-.784,1.2,1.2,0,0,1,.915-.951l8.041-2.156q2.034-.545,4.07-1.087a1.2,1.2,0,0,1,1.509.852c.116.4.218.805.324,1.209.069.262.008.374-.252.47a1.056,1.056,0,0,0-.516,1.668,1.014,1.014,0,0,0,1.045.386c.285-.053.4.014.48.3.1.37.205.741.3,1.111A1.229,1.229,0,0,1-1349.842,247.435Z" fill="#fff"/>
    <path id="Path_6493" data-name="Path 6493" d="M-1349.842,247.435c-.363.1-.727.205-1.094.292a.293.293,0,0,0-.23.214,1.067,1.067,0,0,0,.941,1.433c.282.023.378.123.379.4,0,.407,0,.813,0,1.219a1.212,1.212,0,0,1-1.162,1.231c-.179.011-.36.005-.539.005h-5.817q-3.108,0-6.216,0a1.212,1.212,0,0,1-1.27-.96.846.846,0,0,1-.025-.2q0-.669,0-1.339a.312.312,0,0,1,.333-.356,1.153,1.153,0,0,0,.721-.3.28.28,0,0,0,.091-.348c-.093-.236-.116-.458.174-.583.063-.027.035-.074.024-.119a1.069,1.069,0,0,0-.917-.773c-.346-.024-.427-.11-.427-.454s0-.666,0-1a1.455,1.455,0,0,1,.119-.719c.044-.085,0-.168-.021-.25a1.54,1.54,0,0,1-.078-.784,1.2,1.2,0,0,1,.915-.951l8.041-2.156q2.034-.545,4.07-1.087a1.2,1.2,0,0,1,1.509.852c.116.4.218.805.324,1.209.069.262.008.374-.252.47a1.056,1.056,0,0,0-.516,1.668,1.014,1.014,0,0,0,1.045.386c.285-.053.4.014.48.3.1.37.205.741.3,1.111A1.229,1.229,0,0,1-1349.842,247.435Z" fill="#010101"/>
    <path id="Path_6494" data-name="Path 6494" d="M-1337.88,257.738a.616.616,0,0,1-.487.63q-1.208.325-2.418.646c-.614.164-1.229.323-1.842.492a.363.363,0,0,1-.285-.013.267.267,0,0,0-.354.089.415.415,0,0,1-.255.163q-3.435.915-6.869,1.838a.586.586,0,0,1-.8-.457c-.065-.243-.126-.487-.2-.728a.192.192,0,0,1,.1-.265,1.692,1.692,0,0,0,.39-2.586,1.589,1.589,0,0,0-1.246-.57.169.169,0,0,1-.2-.152c-.067-.277-.145-.551-.21-.828a.551.551,0,0,1,.425-.711c1.277-.348,2.557-.689,3.835-1.033l3.069-.825a.3.3,0,0,1,.275.026.292.292,0,0,0,.428-.112.275.275,0,0,1,.2-.158q2.14-.57,4.279-1.139a.573.573,0,0,1,.755.421c.077.267.138.539.217.805a.155.155,0,0,1-.084.217,1.692,1.692,0,0,0-.827,1.708,1.678,1.678,0,0,0,1.323,1.426c.045.011.09.02.136.03.12.026.277-.047.355.049a.986.986,0,0,1,.106.358Z" transform="translate(-11.646 -11.557)" fill="#fff"/>
    <path id="Path_6495" data-name="Path 6495" d="M-1352.093,394.366a1.261,1.261,0,0,0,.872,1.009,1.22,1.22,0,0,0,.706,0l9.382-2.512.667-.178a1.924,1.924,0,0,0,.041.789,1.67,1.67,0,0,0,1.166,1.178.192.192,0,0,1,.165.232c-.011.253,0,.506,0,.759a.583.583,0,0,1-.644.641h-4.377a.219.219,0,0,1-.226-.109.305.305,0,0,0-.53.008.206.206,0,0,1-.209.1q-3.567,0-7.135,0a.577.577,0,0,1-.621-.6c-.007-.286,0-.573,0-.859,0-.053-.028-.122.066-.14A1.851,1.851,0,0,0-1352.093,394.366Z" transform="translate(-11.395 -144.714)" fill="#a5beff"/>
    <path id="Path_6496" data-name="Path 6496" d="M-1351.556,358.4a1.944,1.944,0,0,0-.552-.74,1.564,1.564,0,0,0-.6-.3c-.116-.027-.146-.073-.146-.186,0-.394.027-.433.421-.419a1.031,1.031,0,0,1,.924.562A1.033,1.033,0,0,1-1351.556,358.4Z" transform="translate(-11.388 -110.691)" fill="#a5beff"/>
    <path id="Path_6497" data-name="Path 6497" d="M-1305.237,314.618c-.2.207-.4.41-.6.616a1.118,1.118,0,0,1-1.257.295c-.244-.084-.49-.164-.733-.251a.328.328,0,0,1-.146-.586c.2-.219.417-.431.62-.652a.331.331,0,0,1,.375-.122c.33.146.479-.058.642-.3l-.733-.19c-.3-.076-.377-.2-.318-.508.029-.15.045-.3.074-.452.053-.264.149-.342.423-.351.6-.02,1.2-.04,1.8-.057a.6.6,0,0,0,.345-.123,1.565,1.565,0,0,1,1.64-.158c.312.138.355.37.119.609q-.316.32-.636.636a.228.228,0,0,0-.084.19c.03.559.047,1.118.081,1.676a.414.414,0,0,1-.251.45c-.179.086-.353.183-.53.273-.288.147-.469.071-.562-.235-.073-.24-.146-.481-.219-.722C-1305.195,314.649-1305.2,314.646-1305.237,314.618Z" transform="translate(-53.744 -67.972)" fill="#0f53ff"/>
    <path id="Path_6498" data-name="Path 6498" d="M-1159.565,342.7c.011.254-.088.363-.251.408q-1.562.424-3.126.838a.327.327,0,0,1-.438-.262c-.063-.209-.121-.42-.173-.632a.337.337,0,0,1,.271-.451q1.544-.416,3.088-.827a.305.305,0,0,1,.406.157C-1159.686,342.2-1159.625,342.491-1159.565,342.7Z" transform="translate(-190.556 -96.502)" fill="#0f53ff"/>
    <path id="Path_6499" data-name="Path 6499" d="M-1182.68,262.248a.374.374,0,0,1-.31.424l-2.11.563c-.115.031-.23.06-.346.088a.329.329,0,0,1-.427-.215.323.323,0,0,1,.255-.405c.523-.146,1.048-.282,1.572-.422.32-.085.639-.174.96-.254A.312.312,0,0,1-1182.68,262.248Z" transform="translate(-169.431 -21.02)" fill="#0f53ff"/>
    <path id="Path_6500" data-name="Path 6500" d="M-1181.278,278.8a.3.3,0,0,1-.325-.261.309.309,0,0,1,.243-.377c.446-.124.894-.242,1.341-.362l1.131-.3c.244-.064.425.022.475.225.043.175-.072.334-.3.4q-1.225.335-2.451.664A.841.841,0,0,1-1181.278,278.8Z" transform="translate(-173.48 -35.659)" fill="#0f53ff"/>
    <path id="Path_6501" data-name="Path 6501" d="M-1197.688,323.117a.347.347,0,0,1-.281.352.291.291,0,0,1-.349-.2,8.9,8.9,0,0,1-.239-.881.288.288,0,0,1,.21-.342.283.283,0,0,1,.388.148C-1197.848,322.5-1197.771,322.827-1197.688,323.117Z" transform="translate(-157.432 -77.822)" fill="#010101"/>
    <path id="Path_6502" data-name="Path 6502" d="M-1188.281,357.708c0,.237-.084.351-.246.385a.288.288,0,0,1-.369-.191c-.09-.289-.167-.583-.233-.879a.287.287,0,0,1,.219-.352.278.278,0,0,1,.369.153C-1188.429,357.133-1188.353,357.455-1188.281,357.708Z" transform="translate(-166.356 -110.602)" fill="#010101"/>
    <path id="Path_6503" data-name="Path 6503" d="M-1207.677,287.676c0-.256.1-.364.262-.4a.28.28,0,0,1,.34.179,4.49,4.49,0,0,1,.246.937.279.279,0,0,1-.241.317.275.275,0,0,1-.35-.153C-1207.529,288.245-1207.606,287.923-1207.677,287.676Z" transform="translate(-148.806 -44.924)" fill="#010101"/>
    <path id="Path_6504" data-name="Path 6504" d="M-1178.457,430.147c-.519,0-1.039,0-1.558,0-.274,0-.389-.11-.4-.384-.005-.206-.006-.413,0-.619.008-.26.125-.382.382-.383q1.588,0,3.176,0a.335.335,0,0,1,.381.379q0,.32,0,.639a.326.326,0,0,1-.366.368C-1177.378,430.148-1177.917,430.147-1178.457,430.147Z" transform="translate(-174.611 -178.854)" fill="#0f53ff"/>
    <path id="Path_6505" data-name="Path 6505" d="M-1204.682,420.123c0-.107,0-.213,0-.319a.306.306,0,0,1,.31-.318.307.307,0,0,1,.328.321q.008.319,0,.639a.317.317,0,0,1-.311.323.316.316,0,0,1-.327-.326C-1204.686,420.337-1204.682,420.23-1204.682,420.123Z" transform="translate(-151.639 -170.077)" fill="#010101"/>
    <path id="Path_6506" data-name="Path 6506" d="M-1287.185,323.784l-2.557,2.56a.45.45,0,0,1-.479.1c-.113-.034-.224-.075-.336-.114a.3.3,0,0,1,.432-.184.426.426,0,0,0,.525-.158c.547-.618,1.1-1.227,1.655-1.842A1.036,1.036,0,0,1-1287.185,323.784Z" transform="translate(-70.353 -79.489)" fill="#a5beff"/>
    <path id="Path_6507" data-name="Path 6507" d="M-1243.093,351.756c.016.324.03.64.05.956a.124.124,0,0,1-.1.147c-.1.026-.074-.074-.092-.115a2.456,2.456,0,0,1-.094-.3C-1243.445,352.039-1243.445,352.039-1243.093,351.756Z" transform="translate(-114.994 -105.967)" fill="#a5beff"/>
    <path id="Path_6508" data-name="Path 6508" d="M-1280.641,332.909c-.079.088-.167.184-.252.281-.039.044-.079.031-.126.018-.229-.062-.459-.122-.689-.181-.037-.01-.088,0-.089-.057,0-.071.059-.06.1-.06C-1281.347,332.908-1281,332.909-1280.641,332.909Z" transform="translate(-78.646 -88.127)" fill="#a5beff"/>
    <path id="Path_6509" data-name="Path 6509" d="M-1150.08,355.926l1.275-.341c.383-.1.764-.207,1.148-.3.04-.01.107-.084.131,0,.019.066-.066.067-.112.079q-.995.267-1.99.528a1.454,1.454,0,0,1-.44.1Z" transform="translate(-203.325 -109.266)" fill="#a5beff"/>
    <path id="Path_6510" data-name="Path 6510" d="M-1167.914,441.505h2.626v.041h-2.624Z" transform="translate(-186.444 -190.92)" fill="#a5beff"/>
  </g>
</svg>
