<svg xmlns="http://www.w3.org/2000/svg" width="16.689" height="10.765" viewBox="0 0 16.689 10.765">
  <g id="Group_3514" data-name="Group 3514" transform="translate(2973.458 128.591)">
    <path id="Path_6518" data-name="Path 6518" d="M-2956.771-120.151a2.286,2.286,0,0,1-2.256,2.315,5.2,5.2,0,0,1-.993-.027,1.986,1.986,0,0,1-.968-.449c-.331-.275-.657-.555-.986-.832-.231-.194-.354-.194-.581,0-.307.259-.614.517-.918.777a2.161,2.161,0,0,1-1.453.537q-3.087,0-6.175,0a2.292,2.292,0,0,1-2.355-2.358q0-3.027,0-6.053a2.286,2.286,0,0,1,1.922-2.307,1.773,1.773,0,0,1,.312-.025c.7,0,1.407,0,2.111,0a.548.548,0,0,1,.543.407.558.558,0,0,1-.259.629.7.7,0,0,1-.37.079q-.942,0-1.884,0a1.171,1.171,0,0,0-1.259,1.263q0,2.992,0,5.984a1.18,1.18,0,0,0,1.26,1.267q3.079,0,6.157,0a1,1,0,0,0,.685-.254c.316-.274.638-.542.957-.812.036-.03.073-.058.11-.086a1.246,1.246,0,0,0,.428-.605.563.563,0,0,1,.589-.393.527.527,0,0,1,.489.5.515.515,0,0,0,.268.494c.4.293.76.631,1.137.949.031.026.065.046.1.069a3.247,3.247,0,0,0,.966.092,1.211,1.211,0,0,0,1.033-.512,1.023,1.023,0,0,0,.184-.572q0-3.136,0-6.272a1.072,1.072,0,0,0-1.049-1.05,3.615,3.615,0,0,0-1.141.074c-.4.291-.757.633-1.14.944-.031.026-.058.065-.094.077-.259.086-.272.286-.253.511a.988.988,0,0,1-.017.312.551.551,0,0,1-.593.407.516.516,0,0,1-.493-.516.7.7,0,0,0-.405-.745,8.94,8.94,0,0,1-1.087-.9.9.9,0,0,0-.635-.234c-.454.005-.907,0-1.36,0a.56.56,0,0,1-.53-.3.524.524,0,0,1,.028-.562.451.451,0,0,1,.35-.235,13.133,13.133,0,0,1,1.916.02,1.834,1.834,0,0,1,.962.458c.325.273.648.548.973.821a.359.359,0,0,0,.568,0c.321-.269.638-.542.959-.81a2,2,0,0,1,1.307-.5,4.847,4.847,0,0,1,1.2.06,2.284,2.284,0,0,1,1.744,2.226Q-2956.764-123.222-2956.771-120.151Z" transform="translate(0 0)" fill="#2d1f47"/>
    <path id="Path_6519" data-name="Path 6519" d="M-2436.746-78.884c0,.71,0,1.419,0,2.128a1.18,1.18,0,0,1-1.264,1.264,4.343,4.343,0,0,1-.7-.018.512.512,0,0,1-.285-.115,1.979,1.979,0,0,0,.355-1.2c-.008-1.994,0-3.987,0-5.981a1.616,1.616,0,0,0-.36-1.064.594.594,0,0,1,.166-.088,2.494,2.494,0,0,1,1.389.054,1.121,1.121,0,0,1,.7,1.124C-2436.748-81.478-2436.746-80.181-2436.746-78.884Z" transform="translate(-521.17 -43.458)" fill="#f3ba56"/>
    <path id="Path_6520" data-name="Path 6520" d="M-2833.836,7.483q-.868.871-1.738,1.739-.573.573-1.146,1.147a.577.577,0,0,1-.428.2.54.54,0,0,1-.5-.319.518.518,0,0,1,.062-.573.832.832,0,0,1,.083-.089q1.443-1.443,2.885-2.885a.548.548,0,0,1,.894.055A.551.551,0,0,1-2833.836,7.483Z" transform="translate(-132.373 -131.732)" fill="#2d1f47"/>
    <path id="Path_6521" data-name="Path 6521" d="M-2541.339,58.386a.562.562,0,0,1-.572.538.53.53,0,0,1-.541-.54c0-.116,0-.232,0-.348s0-.244,0-.365a.557.557,0,0,1,.558-.531.552.552,0,0,1,.555.533Q-2541.326,58.029-2541.339,58.386Z" transform="translate(-420.288 -181.113)" fill="#2d1f47"/>
    <path id="Path_6522" data-name="Path 6522" d="M-2836.417,7.153a.57.57,0,0,1-.57.561.56.56,0,0,1-.543-.566.551.551,0,0,1,.557-.548A.561.561,0,0,1-2836.417,7.153Z" transform="translate(-132.547 -131.83)" fill="#2d1f47"/>
    <path id="Path_6523" data-name="Path 6523" d="M-2717.616,125.989a.552.552,0,0,1-.556.55.562.562,0,0,1-.559-.552.572.572,0,0,1,.569-.563A.56.56,0,0,1-2717.616,125.989Z" transform="translate(-248.394 -247.7)" fill="#2d1f47"/>
  </g>
</svg>
